<svg width="105" height="35" viewBox="0 0 696 293" fill="none" xmlns="http://www.w3.org/2000/svg">
    <g clip-path="url(#a)" fill="#000">
        <path
            d="m535.822 195.451 1.914-8.113h15.515v61.083c0 11.929-3.339 20.279-11.217 26.481-5.964 4.534-14.087 7.871-23.869 7.871-13.369 0-22.917-4.533-30.554-11.929l9.789-13.601c4.774 4.534 11.217 8.592 19.572 8.592 13.128 0 18.853-6.444 18.853-15.987v-4.534c-5.246 5.489-11.451 7.634-18.374 7.634-18.143 0-32.465-14.794-32.465-33.639 0-18.614 14.801-32.926 32.941-32.926 7.399.004 14.08 3.579 17.895 9.068Zm-15.746 6.923c-9.306 0-16.712 7.154-16.712 16.935 0 9.305 7.406 16.7 16.712 16.7 9.306 0 16.705-7.395 16.705-16.7 0-9.781-7.399-16.935-16.705-16.935ZM419.105 96.199c-7.403 0-13.611 4.296-15.039 11.216h29.595c-1.428-6.682-7.392-11.216-14.556-11.216Zm.955 51.774c-19.809 0-34.372-13.598-34.372-33.401 0-17.897 13.128-33.88 33.896-33.88 15.515 0 31.509 11.687 31.509 33.401 0 1.668 0 3.82-.476 6.202h-46.786c1.666 7.157 8.116 11.936 15.991 11.936 7.161 0 12.652-2.627 17.188-7.402l10.741 10.974c-6.919 7.874-16.946 12.17-27.691 12.17Zm198.355-51.774c-7.398 0-13.6 4.296-15.039 11.216h29.599c-1.428-6.682-7.399-11.216-14.56-11.216Zm.959 51.774c-19.809 0-34.372-13.598-34.372-33.401 0-17.897 13.128-33.88 33.896-33.88 15.515 0 31.51 11.687 31.51 33.401 0 1.668 0 3.82-.476 6.202h-46.79c1.676 7.157 8.119 11.936 15.994 11.936 7.158 0 12.649-2.627 17.188-7.402l10.738 10.974c-6.923 7.874-16.95 12.17-27.688 12.17Zm44.634 53.204c-7.399 0-13.604 4.296-15.035 11.216h29.598c-1.435-6.682-7.402-11.216-14.563-11.216Zm.956 51.771c-19.817 0-34.373-13.598-34.373-33.401 0-17.897 13.128-33.881 33.897-33.881 15.515 0 31.512 11.688 31.512 33.401 0 1.669 0 3.82-.486 6.203h-46.779c1.669 7.157 8.116 11.929 15.991 11.929 7.16 0 12.652-2.624 17.187-7.396l10.738 10.974c-6.923 7.878-16.943 12.171-27.687 12.171Zm-293.601-51.771c-7.402 0-13.604 4.296-15.039 11.216h29.598c-1.428-6.682-7.395-11.216-14.559-11.216Zm.955 51.771c-19.809 0-34.372-13.598-34.372-33.401 0-17.897 13.125-33.881 33.89-33.881 15.518 0 31.512 11.688 31.512 33.401 0 1.669 0 3.82-.476 6.203h-46.789c1.672 7.157 8.123 11.929 15.997 11.929 7.158 0 12.646-2.624 17.188-7.396l10.738 10.974c-6.919 7.878-16.943 12.171-27.688 12.171Zm-98.101-1.669v-94.718h18.854v76.825h41.057v17.893h-59.911Zm71.845-104.975V82.36h15.277l1.914 9.306c2.86-5.968 8.586-10.02 16.229-10.02 1.67 0 3.339.235 5.012.714V99.3c-2.152-.476-4.053-.717-6.205-.717-8.592 0-14.559 5.251-14.559 15.507v32.212l-17.668.003Zm311.265 0V82.36H672.6l1.911 9.306c2.867-5.968 8.593-10.02 16.233-10.02 1.673 0 3.339.235 5.015.714V99.3c-2.152-.476-4.056-.717-6.209-.717-8.592 0-14.556 5.251-14.556 15.507v32.212l-17.667.003Zm-123.409-37.7c0-6.919-3.818-11.215-9.789-11.215-6.919 0-10.5 4.296-10.5 11.456v37.456h-17.664v-37.697c0-6.919-3.818-11.215-9.785-11.215-6.923 0-10.504 4.296-10.504 11.456v37.456h-17.663v-63.94h15.515l1.914 8.35s3.818-10.02 15.753-10.02c7.405 0 13.607 3.1 17.905 9.547l.48.714.479-.714c6.209-8.83 13.845-9.546 18.619-9.546 13.604 0 22.914 10.26 22.914 24.813v40.799h-17.664v-37.7h-.01Zm35.566-34.828c-6.206 0-10.98-4.775-10.98-10.74 0-6.202 4.774-10.974 10.98-10.974 6.205 0 10.979 4.768 10.979 10.974 0 5.961-4.774 10.74-10.979 10.74Zm-9.069 8.584h17.661v63.937h-17.661V82.36ZM444.643 202.374c-9.551 0-16.705 7.154-16.705 16.935 0 9.305 7.154 16.7 16.705 16.7 9.31 0 16.471-7.395 16.471-16.7 0-9.781-7.161-16.935-16.471-16.935Zm-3.58 50.574c-16.947 0-31.744-15.508-31.744-33.639 0-17.894 14.797-32.926 31.744-32.926 9.551 0 15.991 3.338 19.813 9.302l1.91-8.35h15.515v63.941h-15.515l-1.91-8.116c-3.822 5.733-10.98 9.788-19.813 9.788Zm152.052 0c-14.084 0-31.265-7.633-31.265-31.491v-34.122h17.657v32.925c0 10.974 5.019 15.746 13.608 15.746 7.875 0 13.607-5.485 13.607-15.746v-32.925h17.664v34.122c0 23.858-17.426 31.491-31.271 31.491ZM293.071 96.441h10.982c9.551 0 16.471-5.248 16.471-14.794 0-9.55-6.92-14.556-16.471-14.556h-10.982v29.35Zm-18.854 49.863V49.197h30.788c20.051 0 35.09 11.93 35.09 32.45 0 20.755-14.801 32.925-35.09 32.925h-11.934v31.732h-18.854ZM206.678 134.062c-6.408 5.249-11.84 8.174-11.84 8.174l.074 16.637c4.58 4.984 9.099 9.114 12.482 16.638 6.42-11.268 5.185-27.834-.716-41.449Zm-5.21 54.462s-1.309-6.862-6.877-13.266l-12.705.301s-17.124 14.35-27.569 14.687c0 0 5.753 10.438 8.667 15.891 5.741-1.228 15.853-5.646 19.927-10.269 0 0 2.692 8.463 2.185 18.455 5.717-3.226 13.594-11.99 16.372-25.799Zm-16.372-30.048-.023-16.577s-7.593-2.372-15.693-8.499c-16.272 2.396-35.977 18.359-35.977 18.359s6.655 12.315 13.939 25.606c12.803 1.745 31.668-14.025 37.754-18.889Zm43.399 69.029-10.47-11.304c-2.988 30.554-18.334 56.497-46.521 74.591l-4.309-16.48c-23.927 16.854-64.991 27.785-100.265 8.33 4.383-21.79 8.272-43.868-.074-70.305-19.532 29.494-36.817 41.051-36.817 41.051-13.199-21.609-12.013-64.96-8.075-77.721L0 182.301c0-14.567 10.754-45.47 26.335-62.83l-13.717-2.143h-.014c9.322-18.575 23.236-34.587 40.262-46.613l.024-.014c-5.112 7.874-5.186 27.304 9.79 34.696-6.358-10.871-7.123-24.306-.481-31.265 6.642-7.018 17.816-4.61 24.952.83-2.123-6.067-8.346-13.699-17.668-14.217h-.013c17.606-8.836 37.595-13.808 58.744-13.808 3.951 0 7.889.169 11.741.506 6.149 2.407 15.174 10.858 19.384 16.12 0 0 .296-6.2-3.235-13.689 22.903 5.442 33.83 14.531 38.41 18.913.938 9.655 3.902 15.446 7.815 24.62-7.42-8.103-26.063-21.177-34.965-24.307 0 0-.728 8.367-3.79 12.388-17.729-12.472-26.434-15.614-26.434-15.614-19.457 2.72-31.977 10.04-38.78 15.794l5.927 4.924C92.557 90.108 84.94 99.931 84.94 99.931c.086.181 10.482 1.625 10.482 1.625s-1.062 11.906 14.223 19.37c13.1 6.393 31.928-1.541 49.657 5.394-11.655-13.122-19.717-18.985-19.717-18.985s-4.63-.939-7.889-.915c-4.075.024-10.149.806-16.804-1.722-3.185-1.216-6.901-3.358-9.815-5.14 0 0 8.185-8.199 20.149-10.004 0 0 10.791 2.961 19.335 9.125 5.679-5.393 11.605-5.225 11.605-5.225s-5.877 5.345-4.099 11.822c8.532 7.416 17.791 18.034 17.791 18.034 9.433-5.032 29.94-3.877 34.151.891-5.334-6.754-13.026-12.388-18.977-17.203-.728-2.528-7.223-11.34-8.321-12.16 0 0 6.173 1.855 11.692 6.682 1.58-2.203 4.543-4.442 8.58-5.43 4.149 3.395 4.89 8.608 4.778 9.475-1.864 2.179-3.716 3.07-3.716 3.07l10.001 10.558 1-7.573c23.038 32.083 35.595 69.21 19.445 115.884M46.555 24.462C59.84 30.398 68.37 37.886 69.927 39.03c-.704-3.347-3.322-19.454-4.828-29.458 7.741 5.236 25.705 17.395 31.62 21.344C99.125 23.68 107.471.048 107.471.048s15.087 23.813 17.668 27.677C128.288 24.51 146.314 4.948 150.981 0c.778 11.256 1.839 27.352 2.111 29.771.901-1.191 7.803-10.63 19.371-19.322-5.012 9.631-7.407 22.922-8.469 33.6a136.33 136.33 0 0 0-35.768-4.755c-23.766 0-46.089 6.092-65.386 16.794-3.507-10.317-9-23.15-16.285-31.626Z" />
    </g>
    <defs>
        <clipPath id="a">
            <path fill="#fff" d="M0 0h696v293H0z" />
        </clipPath>
    </defs>
</svg>